<svg xmlns="http://www.w3.org/2000/svg" width="1200" height="800" viewBox="0 0 1200 800" role="img" aria-labelledby="title desc">
<title id="title">Premium Lumu Real Estate property illustration</title><desc id="desc">Modern residential and commercial property cards with orange accents.</desc>
<defs><linearGradient id="o" x1="0" y1="0" x2="1" y2="1"><stop stop-color="#ff9a1f"/><stop offset=".5" stop-color="#ff6a00"/><stop offset="1" stop-color="#bf4200"/></linearGradient><filter id="s" x="-20%" y="-20%" width="140%" height="140%"><feDropShadow dx="0" dy="30" stdDeviation="28" flood-color="#733000" flood-opacity=".16"/></filter></defs>
<rect width="1200" height="800" rx="44" fill="#fff7ed"/><circle cx="984" cy="128" r="84" fill="#fff"/><circle cx="984" cy="128" r="58" fill="#ffefe0"/><path d="M0 568c141-70 262-93 427-58 188 40 295 120 483 86 106-19 189-61 290-126v330H0z" fill="#fff"/>
<g filter="url(#s)"><rect x="112" y="154" width="288" height="452" rx="32" fill="#fff"/><path d="M92 226 256 100l164 126v62L256 168 92 288z" fill="url(#o)"/><rect x="166" y="322" width="76" height="86" rx="16" fill="#fff2df"/><rect x="270" y="322" width="76" height="86" rx="16" fill="#fff2df"/><rect x="218" y="460" width="88" height="146" rx="18" fill="#17110d"/></g>
<g filter="url(#s)"><rect x="470" y="250" width="228" height="356" rx="28" fill="#17110d"/><rect x="506" y="294" width="54" height="62" rx="10" fill="#ffb25b"/><rect x="608" y="294" width="54" height="62" rx="10" fill="#ffb25b"/><rect x="506" y="392" width="54" height="62" rx="10" fill="#ffb25b"/><rect x="608" y="392" width="54" height="62" rx="10" fill="#ffb25b"/><rect x="555" y="512" width="82" height="94" rx="16" fill="#fff"/></g>
<g filter="url(#s)"><rect x="760" y="206" width="318" height="400" rx="32" fill="#fff"/><path d="M800 294h238" stroke="#ff6a00" stroke-width="16" stroke-linecap="round"/><rect x="810" y="340" width="88" height="80" rx="16" fill="#fff2df"/><rect x="930" y="340" width="88" height="80" rx="16" fill="#fff2df"/><rect x="828" y="480" width="176" height="54" rx="16" fill="#17110d"/><circle cx="810" cy="558" r="24" fill="url(#o)"/><circle cx="882" cy="558" r="24" fill="#fff2df"/><circle cx="954" cy="558" r="24" fill="#fff2df"/></g>
<rect x="116" y="644" width="966" height="80" rx="30" fill="#17110d"/><text x="160" y="694" font-family="Montserrat,Arial" font-weight="900" font-size="28" fill="#fff">Land • Houses • Rentals • Commercial Property • Investment</text>
</svg>
