<svg xmlns="http://www.w3.org/2000/svg" width="760" height="680" viewBox="0 0 760 680" role="img" aria-labelledby="title desc">
<title id="title">Lumu SUV illustration</title><desc id="desc">Premium orange suv illustration used on the Lumu website.</desc>
<defs><linearGradient id="o" x1="0" y1="0" x2="1" y2="1"><stop stop-color="#ff9a1f"/><stop offset=".55" stop-color="#ff6a00"/><stop offset="1" stop-color="#bf4200"/></linearGradient><filter id="s" x="-20%" y="-20%" width="140%" height="140%"><feDropShadow dx="0" dy="24" stdDeviation="22" flood-color="#733000" flood-opacity=".15"/></filter></defs>
<rect width="760" height="680" rx="44" fill="#fff7ed"/><g transform="translate(0 0)" fill="url(#o)" filter="url(#s)"><path d="M108 206c26-72 78-108 155-108h156c86 0 147 42 184 126l46 8c41 8 70 44 70 86v32H72v-34c0-54 43-99 96-103l-60-7Z"/><path d="M252 130h124l56 88H184c17-42 39-70 68-88Z" fill="#fff7ed" opacity=".9"/><circle cx="222" cy="352" r="49" fill="#fff"/><circle cx="566" cy="352" r="49" fill="#fff"/></g>
</svg>
