<svg xmlns="http://www.w3.org/2000/svg" width="1200" height="800" viewBox="0 0 1200 800" role="img" aria-labelledby="title desc">
<title id="title">Premium Lumu Auto Dealers showroom illustration</title><desc id="desc">Modern showroom with orange premium SUV and vehicle service cards.</desc>
<defs><linearGradient id="o" x1="0" y1="0" x2="1" y2="1"><stop stop-color="#ff9a1f"/><stop offset=".55" stop-color="#ff6a00"/><stop offset="1" stop-color="#bf4200"/></linearGradient><linearGradient id="b" x1="0" y1="0" x2="1" y2="1"><stop stop-color="#211812"/><stop offset="1" stop-color="#050505"/></linearGradient><filter id="s" x="-20%" y="-20%" width="140%" height="140%"><feDropShadow dx="0" dy="30" stdDeviation="30" flood-color="#733000" flood-opacity=".18"/></filter></defs>
<rect width="1200" height="800" rx="44" fill="#fff7ed"/><path d="M0 510h1200v290H0z" fill="#fff"/><path d="M78 490h1044" stroke="#f4ba78" stroke-width="3" stroke-dasharray="12 18"/>
<g filter="url(#s)"><rect x="100" y="118" width="1000" height="312" rx="36" fill="#fff"/><path d="M100 118h1000v86H100z" fill="url(#b)"/><text x="142" y="174" font-family="Montserrat,Arial" font-size="32" font-weight="900" fill="#fff">Lumu Auto Dealers</text><text x="862" y="171" font-family="Manrope,Arial" font-size="16" font-weight="800" fill="#ffb45d">Sales • Import • Fleet</text><rect x="144" y="244" width="260" height="128" rx="24" fill="#fff7ed"/><rect x="468" y="244" width="260" height="128" rx="24" fill="#fff7ed"/><rect x="792" y="244" width="260" height="128" rx="24" fill="#fff7ed"/><circle cx="184" cy="288" r="18" fill="url(#o)"/><circle cx="508" cy="288" r="18" fill="url(#o)"/><circle cx="832" cy="288" r="18" fill="url(#o)"/></g>
<g filter="url(#s)"><path d="M263 560c22-85 80-128 174-128h300c87 0 154 47 197 140l72 10c44 6 76 44 76 88v24H150v-36c0-50 37-92 87-98l26-0Z" fill="url(#b)"/><path d="M346 475h258c90 0 149 33 201 99H258c22-63 50-99 88-99Z" fill="url(#o)"/><path d="M410 494h134l48 80H332c16-37 39-64 78-80Z" fill="#fff2df"/><path d="M638 494h80c38 18 70 45 96 80H687l-49-80Z" fill="#fff2df" opacity=".92"/><circle cx="331" cy="680" r="68" fill="#fff"/><circle cx="331" cy="680" r="33" fill="#17110d"/><circle cx="867" cy="680" r="68" fill="#fff"/><circle cx="867" cy="680" r="33" fill="#17110d"/><path d="M178 616h90" stroke="#ff9a1f" stroke-width="12" stroke-linecap="round"/><path d="M922 617h98" stroke="#ff9a1f" stroke-width="12" stroke-linecap="round"/></g>
</svg>
