<svg xmlns="http://www.w3.org/2000/svg" width="1280" height="980" viewBox="0 0 1280 980" role="img" aria-labelledby="title desc">
<title id="title">Lumu Group premium auto and real estate ecosystem</title><desc id="desc">A premium city, vehicle, house and business landscape in orange and white.</desc>
<defs>
  <linearGradient id="sky" x1="0" y1="0" x2="0" y2="1"><stop stop-color="#fff7ed"/><stop offset=".62" stop-color="#ffffff"/><stop offset="1" stop-color="#fff2df"/></linearGradient>
  <linearGradient id="orange" x1="0" y1="0" x2="1" y2="1"><stop stop-color="#ff9a1f"/><stop offset=".48" stop-color="#ff6a00"/><stop offset="1" stop-color="#c84700"/></linearGradient>
  <linearGradient id="ink" x1="0" y1="0" x2="1" y2="1"><stop stop-color="#2a211b"/><stop offset="1" stop-color="#050505"/></linearGradient>
  <filter id="shadow" x="-20%" y="-20%" width="140%" height="140%"><feDropShadow dx="0" dy="34" stdDeviation="34" flood-color="#6a2900" flood-opacity=".18"/></filter>
  <pattern id="grid" width="56" height="56" patternUnits="userSpaceOnUse"><path d="M56 0H0v56" fill="none" stroke="#f4c391" stroke-width="1" opacity=".36"/></pattern>
</defs>
<rect width="1280" height="980" rx="52" fill="url(#sky)"/>
<circle cx="1082" cy="150" r="108" fill="#fff"/><circle cx="1082" cy="150" r="86" fill="#ffefe0"/><path d="M0 250h1280v730H0z" fill="url(#grid)" opacity=".56"/>
<path d="M64 786c122-112 212-162 374-162 174 0 232 61 392 61 143 0 239-51 386-153v448H64z" fill="#fff" opacity=".9"/>
<g filter="url(#shadow)">
<rect x="118" y="356" width="286" height="364" rx="34" fill="#fff"/>
<rect x="146" y="390" width="68" height="86" rx="14" fill="#fff2df"/><rect x="234" y="390" width="68" height="86" rx="14" fill="#fff2df"/><rect x="322" y="390" width="50" height="86" rx="14" fill="#fff2df"/>
<rect x="146" y="500" width="68" height="86" rx="14" fill="#fff2df"/><rect x="234" y="500" width="68" height="86" rx="14" fill="#fff2df"/><rect x="322" y="500" width="50" height="86" rx="14" fill="#fff2df"/>
<path d="M118 356h286v64H118z" fill="url(#orange)"/>
<path d="M172 720V613h118v107" fill="#19110c"/>
<rect x="738" y="294" width="338" height="426" rx="34" fill="#fff"/>
<path d="M718 350 907 196l190 154v76L907 276 718 426z" fill="url(#orange)"/>
<rect x="796" y="426" width="100" height="112" rx="18" fill="#fff2df"/><rect x="918" y="426" width="100" height="112" rx="18" fill="#fff2df"/><rect x="853" y="586" width="108" height="134" rx="20" fill="#19110c"/>
<path d="M162 796h894c50 0 91 41 91 91v8H70v-8c0-50 41-91 92-91Z" fill="#17110d"/>
<path d="M248 757h498c68 0 128 38 158 97H151c20-58 51-97 97-97Z" fill="url(#ink)"/>
<path d="M302 705h260c67 0 124 31 160 84H225c19-50 41-84 77-84Z" fill="url(#orange)"/>
<path d="M608 706c65 3 115 34 146 83h-95c-13-30-31-57-51-83Z" fill="#fff2df" opacity=".85"/>
<circle cx="323" cy="856" r="56" fill="#fff"/><circle cx="323" cy="856" r="26" fill="#19110c"/><circle cx="804" cy="856" r="56" fill="#fff"/><circle cx="804" cy="856" r="26" fill="#19110c"/>
<path d="M375 726h150l44 63H323c11-28 27-49 52-63Z" fill="#fff7ed" opacity=".94"/>
</g>
<g opacity=".9"><rect x="102" y="104" width="216" height="76" rx="24" fill="#fff"/><circle cx="148" cy="142" r="18" fill="url(#orange)"/><text x="180" y="138" font-family="Montserrat, Arial" font-weight="800" font-size="18" fill="#17110d">Trusted group</text><text x="180" y="160" font-family="Manrope, Arial" font-size="13" fill="#735b4b">Auto + property support</text></g>
<g opacity=".9"><rect x="850" y="748" width="302" height="82" rx="26" fill="#fff"/><circle cx="898" cy="789" r="20" fill="url(#orange)"/><text x="932" y="785" font-family="Montserrat, Arial" font-weight="800" font-size="18" fill="#17110d">Fast inquiries</text><text x="932" y="808" font-family="Manrope, Arial" font-size="13" fill="#735b4b">WhatsApp-ready lead forms</text></g>
</svg>
