<svg xmlns="http://www.w3.org/2000/svg" width="640" height="640" viewBox="0 0 640 640"><rect width="640" height="640" fill="#fff7ed"/><g fill="none" stroke="#ff8a00" opacity=".18" stroke-width="2"><path d="M0 80c90-60 160-60 240 0s150 60 240 0 110-60 160 0"/><path d="M0 200c90-60 160-60 240 0s150 60 240 0 110-60 160 0"/><path d="M0 320c90-60 160-60 240 0s150 60 240 0 110-60 160 0"/><path d="M0 440c90-60 160-60 240 0s150 60 240 0 110-60 160 0"/><path d="M0 560c90-60 160-60 240 0s150 60 240 0 110-60 160 0"/></g></svg>
