<svg xmlns="http://www.w3.org/2000/svg" width="760" height="680" viewBox="0 0 760 680" role="img" aria-labelledby="title desc">
<title id="title">Lumu Sedan illustration</title><desc id="desc">Premium orange sedan illustration used on the Lumu website.</desc>
<defs><linearGradient id="o" x1="0" y1="0" x2="1" y2="1"><stop stop-color="#ff9a1f"/><stop offset=".55" stop-color="#ff6a00"/><stop offset="1" stop-color="#bf4200"/></linearGradient><filter id="s" x="-20%" y="-20%" width="140%" height="140%"><feDropShadow dx="0" dy="24" stdDeviation="22" flood-color="#733000" flood-opacity=".15"/></filter></defs>
<rect width="760" height="680" rx="44" fill="#fff7ed"/><g transform="translate(0 0)" fill="url(#o)" filter="url(#s)"><path d="M118 210c18-56 62-84 132-84h122c70 0 121 29 154 86l44 8c42 8 72 44 72 87v22H78v-24c0-48 36-88 83-94h-43Z"/><path d="M218 156h116l36 58H168c13-26 29-46 50-58Z" fill="#fff7ed" opacity=".9"/><circle cx="210" cy="326" r="42" fill="#fff"/><circle cx="500" cy="326" r="42" fill="#fff"/></g>
</svg>
