<svg width="680" height="360" viewBox="0 0 680 360" fill="none" xmlns="http://www.w3.org/2000/svg">
  <rect x="24" y="62" width="632" height="236" rx="48" fill="#fff7ed"/>
  <path d="M122 221h424c23 0 43-17 47-40l6-33c3-18-11-35-29-35H441l-56-54c-11-11-27-17-43-17H231c-21 0-40 11-51 29l-43 72H91c-18 0-33 15-33 33v12c0 18 15 33 33 33h31Z" fill="white" stroke="#111827" stroke-width="7" stroke-linejoin="round"/>
  <path d="M210 143l35-56h91c11 0 22 4 31 12l46 44H210Z" fill="#ffedd5" stroke="#111827" stroke-width="7" stroke-linejoin="round"/>
  <circle cx="182" cy="222" r="40" fill="#111827"/>
  <circle cx="182" cy="222" r="17" fill="#fb923c"/>
  <circle cx="511" cy="222" r="40" fill="#111827"/>
  <circle cx="511" cy="222" r="17" fill="#fb923c"/>
  <path d="M455 174h58" stroke="#fb923c" stroke-width="8" stroke-linecap="round"/>
  <path d="M104 177h36" stroke="#fb923c" stroke-width="8" stroke-linecap="round"/>
</svg>
